<?xml version="1.0" encoding="utf-8"?>
<!-- Svg Vector Icons : http://www.onlinewebfonts.com/icon -->
<!DOCTYPE svg PUBLIC "-//W3C//DTD SVG 1.1//EN" "http://www.w3.org/Graphics/SVG/1.1/DTD/svg11.dtd">
<svg version="1.1" xmlns="http://www.w3.org/2000/svg" xmlns:xlink="http://www.w3.org/1999/xlink" x="0px" y="0px" viewBox="0 0 256 256" enable-background="new 0 0 256 256" xml:space="preserve">
<metadata> Svg Vector Icons : http://www.onlinewebfonts.com/icon </metadata>
<g><g><g><path fill="#000000" d="M71.5,11.2c-1.4,1.4-1.5,3.4-0.2,5l0.9,1.2H128h55.8l0.9-1.2c1.3-1.7,1.2-3.6-0.2-5l-1.1-1.2H128H72.6L71.5,11.2z"/><path fill="#000000" d="M72,23.9c-5.4,4.9-9.2,11.3-10.9,17.8c-0.8,3.4-0.9,5.9-0.9,94.6c0,77.9,0.1,91.3,0.6,92.3c0.9,1.6,5,5.5,7.8,7.4c2.1,1.4,2.4,1.4,6.8,1.4h4.7l-1.4-2.8c-3-6-3-3.9-3.1-53.4c-0.1-24.6-0.3-44.8-0.5-44.8c-0.2,0-1,0.6-1.8,1.5l-1.5,1.5v-17.1v-17l1.8-0.7l1.8-0.8l0.1-29.4c0.2-28.6,0.2-29.6,1.2-33.1c1.4-5.1,4.1-11,7.2-15.7c1.5-2.2,2.6-4.1,2.6-4.2c0-0.1-2.6-0.2-5.7-0.2h-5.7L72,23.9z"/><path fill="#000000" d="M94.6,25.5c-3.7,4.9-8.1,12.9-9.3,17.4c-0.7,2.4-0.8,6.2-1,30.1c-0.1,22.4,0,27.4,0.5,27.4c0.3,0,2.2-0.3,4.2-0.7c2-0.4,3.7-0.7,3.8-0.7S93,86.9,93,72.2c0-25.3,0-27.2,0.9-30.6c1.2-4.9,4.9-12,8.5-16.7l3-3.8h-3.7h-3.6L94.6,25.5z"/><path fill="#000000" d="M107.8,24.4c-5.4,6.2-8.7,12.1-10.5,18.4c-0.8,2.7-0.8,5.4-0.9,29.5v26.5l5.3,0.3c9.1,0.5,16.3,3,24.6,8.5c3.6,2.4,6.6,5,13.2,11.7c8.9,9,11.8,11.4,17.6,14.9c7.3,4.4,14.2,6.6,22.2,7.1l4.9,0.3v11v10.9l-3.2,0.6c-4.5,0.8-14,0.3-18.5-1c-10.6-3-19.7-8-31.4-17.4c-7.6-6-12-9-17.7-11.7c-5.2-2.5-9.8-3.9-14.3-4.3l-3-0.3v46.7c0,25.7,0.2,48.1,0.4,49.6c0.6,3.6,2.2,7.3,4.4,9.8l1.7,1.9H144h41.2l2.6-1.8c3.2-2.1,7.3-6.5,7.7-7.9c0.1-0.6,0.2-42.4,0.1-92.9L195.6,43l-1.4-4c-1.8-5.1-5.8-11-9.9-14.9l-3.3-3h-35.2h-35.2L107.8,24.4z"/><path fill="#000000" d="M87.7,130.3l-3.2,0.8l-0.1,45c0,29.1,0,46.1,0.4,48.1c0.6,4.2,1.9,7.5,4.3,10.6l1.9,2.7h3.4h3.4l-1-1.3c-0.5-0.8-1.5-2.6-2.2-4.1l-1.2-2.7L93,179.6c-0.2-49.4-0.2-49.8-1.2-49.9C91.3,129.6,89.5,129.9,87.7,130.3z"/><path fill="#000000" d="M76.5,241.1c0.8,1.6,1.8,2.5,4.4,3.8l2.1,1.1h45h45l2.1-1.1c2.6-1.3,3.6-2.2,4.4-3.8l0.7-1.3H128H75.9L76.5,241.1z"/></g></g></g>
</svg>